<svg width="24" height="25" viewBox="0 0 24 25" fill="none" xmlns="http://www.w3.org/2000/svg">
<path fill-rule="evenodd" clip-rule="evenodd" d="M14.6317 8.55124C14.078 8.03161 13.1069 7.40976 11.6672 7.40976C9.63984 7.40976 7.9191 8.74716 7.29725 10.5957L4.81836 8.6705C6.0791 6.16605 8.66873 4.44531 11.6672 4.44531C13.7372 4.44531 15.4665 5.20346 16.7954 6.43865L14.6317 8.55124ZM18.8651 10.7148C18.9759 11.1919 19.027 11.6519 19.027 12.2823C19.027 14.6163 18.1922 16.584 16.7441 17.9214L16.7446 17.9218C15.4753 19.0973 13.7375 19.7788 11.6675 19.7788C8.669 19.7788 6.08789 18.058 4.82715 15.5536L7.30604 13.6284C7.91937 15.4769 9.64011 16.8143 11.6675 16.8143C12.8089 16.8143 13.6778 16.4992 14.3252 16.0478L14.3248 16.0474C15.347 15.3319 15.807 14.2671 15.8922 13.56H11.667V10.7148H18.8651ZM7.30519 13.6282C7.14333 13.1512 7.04963 12.64 7.04963 12.1119C7.04963 11.5837 7.14333 11.0726 7.29667 10.5956L4.81778 8.67041C4.29815 9.70967 4 10.8767 4 12.1119C4 13.3471 4.29815 14.5141 4.81778 15.5534L7.30519 13.6282Z" fill="white"/>
</svg>
