<svg width="46" height="47" viewBox="0 0 46 47" fill="none" xmlns="http://www.w3.org/2000/svg">
<path d="M22.6316 44.4453L3.87751 25.6912C-1.40342 20.2749 -1.26801 11.6087 4.14833 6.32782C9.22615 1.3854 17.283 1.11459 22.6316 5.78618C28.0479 1.11459 36.1724 1.3854 41.2503 6.46322C46.5312 11.7442 46.5989 20.3426 41.3857 25.6912L22.6316 44.4453ZM5.57012 24.4726L22.6993 41.6017L39.8962 24.4049C44.4324 19.8687 44.4324 12.4212 39.8962 7.88501C35.36 3.34883 27.9802 3.34883 23.3763 7.88501L22.6316 8.62976L21.8868 7.88501C17.3507 3.28112 9.9709 3.28112 5.36701 7.7496C0.763119 12.2181 0.763119 19.6656 5.2316 24.2694L5.36701 24.3371L5.57012 24.4726Z" fill="#071524"/>
</svg>
