<svg width="24" height="25" viewBox="0 0 24 25" fill="none" xmlns="http://www.w3.org/2000/svg">
<path d="M20.3988 6.98806C19.7957 7.24877 19.1479 7.42492 18.4668 7.50454C19.1696 7.09431 19.6953 6.44866 19.9459 5.68806C19.2857 6.07066 18.5631 6.33996 17.8096 6.48427C17.3029 5.95642 16.6317 5.60656 15.9003 5.48899C15.1689 5.37143 14.4181 5.49274 13.7646 5.83409C13.1111 6.17545 12.5914 6.71775 12.2862 7.3768C11.9809 8.03585 11.9073 8.77477 12.0766 9.47885C10.7388 9.41332 9.43012 9.07409 8.23542 8.48317C7.04071 7.89226 5.98672 7.06286 5.14183 6.04882C4.85294 6.535 4.68683 7.09869 4.68683 7.69901C4.68651 8.23944 4.82292 8.77159 5.08397 9.24825C5.34501 9.72491 5.72262 10.1313 6.18328 10.4315C5.64903 10.4149 5.12657 10.2741 4.65939 10.0207V10.063C4.65934 10.8209 4.92808 11.5556 5.42002 12.1423C5.91196 12.7289 6.5968 13.1315 7.35833 13.2816C6.86273 13.4125 6.34313 13.4317 5.83878 13.338C6.05364 13.9902 6.47216 14.5605 7.03577 14.9691C7.59937 15.3777 8.27983 15.6041 8.98189 15.6167C7.7901 16.5294 6.31825 17.0245 4.80311 17.0224C4.53472 17.0224 4.26656 17.0072 4 16.9766C5.53795 17.9413 7.32825 18.4533 9.15667 18.4513C15.3461 18.4513 18.7297 13.45 18.7297 9.11245C18.7297 8.97153 18.7261 8.8292 18.7196 8.68828C19.3778 8.22393 19.9459 7.64891 20.3973 6.99018L20.3988 6.98806Z" fill="white"/>
</svg>
