<svg width="24" height="25" viewBox="0 0 24 25" fill="none" xmlns="http://www.w3.org/2000/svg">
<path d="M19.125 10.0078C19.125 8.00211 18.3282 6.07856 16.91 4.66032C15.4918 3.24207 13.5682 2.44531 11.5625 2.44531C9.5568 2.44531 7.63325 3.24207 6.21501 4.66032C4.79676 6.07856 4 8.00211 4 10.0078C4 16.8828 11.5625 23.0703 11.5625 23.0703C11.5625 23.0703 19.125 16.8828 19.125 10.0078Z" stroke="#071524" stroke-linecap="round" stroke-linejoin="round"/>
<path d="M11.5625 13.4453C13.461 13.4453 15 11.9063 15 10.0078C15 8.10933 13.461 6.57031 11.5625 6.57031C9.66402 6.57031 8.125 8.10933 8.125 10.0078C8.125 11.9063 9.66402 13.4453 11.5625 13.4453Z" stroke="#071524" stroke-linecap="round" stroke-linejoin="round"/>
</svg>
