<svg width="24" height="25" viewBox="0 0 24 25" fill="none" xmlns="http://www.w3.org/2000/svg">
<path d="M8.02938 7.66618C8.09967 7.73591 8.15547 7.81886 8.19354 7.91025C8.23162 8.00165 8.25122 8.09968 8.25122 8.19868C8.25122 8.29769 8.23162 8.39572 8.19354 8.48712C8.15547 8.57851 8.09967 8.66146 8.02938 8.73118L4.57937 12.1812H22.2344C22.4333 12.1812 22.6241 12.2602 22.7647 12.4009C22.9054 12.5415 22.9844 12.7323 22.9844 12.9312C22.9844 13.1301 22.9054 13.3209 22.7647 13.4615C22.6241 13.6022 22.4333 13.6812 22.2344 13.6812H4.59438L8.02938 17.1087C8.16906 17.2492 8.24747 17.4393 8.24747 17.6374C8.24747 17.8356 8.16906 18.0257 8.02938 18.1662C7.88885 18.3059 7.69876 18.3843 7.50062 18.3843C7.30249 18.3843 7.1124 18.3059 6.97187 18.1662L2.20187 13.3962C2.13767 13.3346 2.08659 13.2606 2.05169 13.1788C2.01679 13.097 1.99881 13.0089 1.99881 12.9199C1.99881 12.831 2.01679 12.7429 2.05169 12.6611C2.08659 12.5792 2.13767 12.5053 2.20187 12.4437L6.96437 7.66618C7.0341 7.59589 7.11705 7.54009 7.20844 7.50202C7.29984 7.46394 7.39787 7.44434 7.49688 7.44434C7.59588 7.44434 7.69391 7.46394 7.78531 7.50202C7.8767 7.54009 7.95965 7.59589 8.02938 7.66618Z" fill="#071524"/>
</svg>
