<svg width="46" height="47" viewBox="0 0 46 47" fill="none" xmlns="http://www.w3.org/2000/svg">
<path d="M45.9296 16.2103C45.9596 16.0762 45.9596 15.9371 45.9296 15.8029C45.9123 15.6504 45.8591 15.5041 45.7743 15.3761L38.8287 5.20992C38.8387 5.13263 38.8387 5.05439 38.8287 4.97711C38.7382 4.79825 38.5944 4.65185 38.4172 4.55805C38.24 4.46424 38.0381 4.42764 37.8393 4.45328H8.33022C8.19402 4.46375 8.06168 4.50345 7.9422 4.56968C7.88427 4.61484 7.83214 4.66697 7.78699 4.72489C7.72996 4.76372 7.67784 4.80933 7.63178 4.8607L0.201162 15.2597C0.10028 15.4027 0.0399459 15.5703 0.0265524 15.7447C-0.0088508 15.8914 -0.0088508 16.0443 0.0265524 16.1909C0.0229457 16.2361 0.0229457 16.2816 0.0265524 16.3267L23.0751 42.2466H23.3079H23.4049H23.5213H23.7735H24.0645H24.1809L45.5221 16.4626C45.5248 16.4238 45.5248 16.3849 45.5221 16.3462C45.5221 16.3462 45.9296 16.2297 45.9296 16.2103ZM23.0169 7.11123L28.488 14.8717H17.4875L20.8245 10.1378L23.0169 7.11123ZM29.2252 16.8118L23.6959 38.153L17.0025 16.8118H29.2252ZM21.4648 37.5709L3.15013 16.7924H14.9654L21.4648 37.5709ZM31.1653 16.8118H42.9224L25.83 37.6098L31.1653 16.8118ZM32.2906 14.8717L37.7035 7.11123L43.1164 14.8717H32.2906ZM35.841 6.39339L30.4281 14.1538L25.0152 6.39339H35.841ZM17.8174 11.1273L15.6832 14.1538L11.0658 7.59626L10.2121 6.39339H21.1544L17.8174 11.1273ZM8.33022 7.11123L12.9671 13.6494L13.8207 14.8523H2.85911L8.33022 7.11123Z" fill="#071524"/>
</svg>
