<svg width="46" height="47" viewBox="0 0 46 47" fill="none" xmlns="http://www.w3.org/2000/svg">
<path d="M22.4036 31.6353C22.4416 31.6729 22.483 31.7068 22.5274 31.7366L22.5949 31.7731C22.6456 31.8056 22.7018 31.8285 22.7608 31.8406L22.8311 31.8603C22.9388 31.8815 23.0497 31.8815 23.1574 31.8603L23.2305 31.8378L23.3149 31.8125C23.3438 31.7991 23.372 31.7841 23.3993 31.7675L23.4583 31.7337C23.5049 31.7025 23.5482 31.6667 23.5877 31.6269L31.1561 24.0669C31.2505 23.9934 31.3282 23.9007 31.3841 23.7949C31.4399 23.6892 31.4727 23.5727 31.4801 23.4533C31.4875 23.3339 31.4695 23.2143 31.4271 23.1024C31.3848 22.9905 31.3192 22.8889 31.2346 22.8044C31.15 22.7198 31.0484 22.6541 30.9365 22.6118C30.8246 22.5695 30.705 22.5514 30.5856 22.5589C30.4662 22.5663 30.3498 22.599 30.244 22.6548C30.1382 22.7107 30.0455 22.7884 29.9721 22.8828L23.8436 29.0028V6.28906C23.8436 6.06529 23.7547 5.85067 23.5965 5.69244C23.4383 5.53421 23.2237 5.44531 22.9999 5.44531C22.7761 5.44531 22.5615 5.53421 22.4033 5.69244C22.245 5.85067 22.1561 6.06529 22.1561 6.28906V29.0028L16.0277 22.8828C15.8654 22.7565 15.6625 22.6938 15.4572 22.7066C15.2519 22.7193 15.0583 22.8066 14.9129 22.9521C14.7675 23.0975 14.6802 23.2911 14.6674 23.4964C14.6546 23.7017 14.7173 23.9045 14.8436 24.0669L22.4036 31.6353Z" fill="#071524"/>
<path d="M40.1562 30.1953C39.9325 30.1953 39.7179 30.2842 39.5596 30.4424C39.4014 30.6007 39.3125 30.8153 39.3125 31.0391V37.2266C39.3125 37.8979 39.0458 38.5417 38.5711 39.0164C38.0964 39.4911 37.4526 39.7578 36.7812 39.7578H9.21875C8.54742 39.7578 7.90359 39.4911 7.42889 39.0164C6.95418 38.5417 6.6875 37.8979 6.6875 37.2266V31.0391C6.6875 30.8153 6.59861 30.6007 6.44037 30.4424C6.28214 30.2842 6.06753 30.1953 5.84375 30.1953C5.61997 30.1953 5.40536 30.2842 5.24713 30.4424C5.08889 30.6007 5 30.8153 5 31.0391V37.2266C5 38.3454 5.44447 39.4185 6.23564 40.2097C7.02681 41.0008 8.09987 41.4453 9.21875 41.4453H36.7812C37.9001 41.4453 38.9732 41.0008 39.7644 40.2097C40.5555 39.4185 41 38.3454 41 37.2266V31.0391C41 30.8153 40.9111 30.6007 40.7529 30.4424C40.5946 30.2842 40.38 30.1953 40.1562 30.1953Z" fill="#071524"/>
</svg>
