<svg width="46" height="47" viewBox="0 0 46 47" fill="none" xmlns="http://www.w3.org/2000/svg">
<path d="M23 32.7891C26.9695 32.7891 30.1875 29.5711 30.1875 25.6016C30.1875 21.632 26.9695 18.4141 23 18.4141C19.0305 18.4141 15.8125 21.632 15.8125 25.6016C15.8125 29.5711 19.0305 32.7891 23 32.7891Z" stroke="#071524" stroke-width="1.5" stroke-linecap="round" stroke-linejoin="round"/>
<path d="M35.2188 21.2891C36.893 21.2863 38.5447 21.6747 40.0422 22.4235C41.5397 23.1722 42.8415 24.2605 43.8438 25.6016" stroke="#071524" stroke-width="1.5" stroke-linecap="round" stroke-linejoin="round"/>
<path d="M2.15625 25.6016C3.15855 24.2605 4.46035 23.1722 5.95782 22.4235C7.4553 21.6747 9.10702 21.2863 10.7812 21.2891" stroke="#071524" stroke-width="1.5" stroke-linecap="round" stroke-linejoin="round"/>
<path d="M12.6484 39.2571C13.5951 37.3184 15.0672 35.6846 16.8971 34.5418C18.7269 33.3989 20.841 32.793 22.9984 32.793C25.1559 32.793 27.27 33.3989 29.0998 34.5418C30.9297 35.6846 32.4018 37.3184 33.3484 39.2571" stroke="#071524" stroke-width="1.5" stroke-linecap="round" stroke-linejoin="round"/>
<path d="M10.7793 21.2891C9.68793 21.2902 8.6188 20.9807 7.69682 20.3967C6.77484 19.8128 6.03808 18.9785 5.57262 17.9914C5.10717 17.0043 4.93225 15.9051 5.06829 14.8223C5.20434 13.7394 5.64574 12.7177 6.34091 11.8764C7.03608 11.0351 7.95632 10.409 8.9941 10.0713C10.0319 9.73358 11.1443 9.69817 12.2015 9.96922C13.2586 10.2403 14.2168 10.8066 14.9641 11.6019C15.7114 12.3973 16.2168 13.3889 16.4215 14.4609" stroke="#071524" stroke-width="1.5" stroke-linecap="round" stroke-linejoin="round"/>
<path d="M29.5781 14.4609C29.7828 13.3889 30.2882 12.3973 31.0355 11.6019C31.7828 10.8066 32.7409 10.2403 33.7981 9.96922C34.8553 9.69817 35.9677 9.73358 37.0055 10.0713C38.0433 10.409 38.9635 11.0351 39.6587 11.8764C40.3538 12.7177 40.7952 13.7394 40.9313 14.8223C41.0673 15.9051 40.8924 17.0043 40.427 17.9914C39.9615 18.9785 39.2247 19.8128 38.3028 20.3967C37.3808 20.9807 36.3117 21.2902 35.2203 21.2891" stroke="#071524" stroke-width="1.5" stroke-linecap="round" stroke-linejoin="round"/>
</svg>
