<svg width="24" height="25" viewBox="0 0 24 25" fill="none" xmlns="http://www.w3.org/2000/svg">
<path d="M7.30436 19.6126H4.05436V8.7793H7.30436V19.6126ZM19.221 19.6126H15.971V13.8255C15.971 12.3175 15.4337 11.5667 14.3688 11.5667C13.5249 11.5667 12.9897 11.987 12.721 12.8288C12.721 14.196 12.721 19.6126 12.721 19.6126H9.47103C9.47103 19.6126 9.51436 9.86263 9.47103 8.7793H12.0364L12.2346 10.946H12.3018C12.968 9.86263 14.0329 9.12813 15.4933 9.12813C16.6037 9.12813 17.5018 9.43688 18.1875 10.2125C18.8776 10.9893 19.221 12.0315 19.221 13.495V19.6126Z" fill="white"/>
<path d="M5.67917 7.69531C6.60655 7.69531 7.35833 6.96778 7.35833 6.07031C7.35833 5.17285 6.60655 4.44531 5.67917 4.44531C4.75179 4.44531 4 5.17285 4 6.07031C4 6.96778 4.75179 7.69531 5.67917 7.69531Z" fill="white"/>
</svg>
