<svg width="46" height="47" viewBox="0 0 46 47" fill="none" xmlns="http://www.w3.org/2000/svg">
<path d="M43.9167 9.36198V8.61198H43.1667H2.91667H2.16667V9.36198V34.2786V35.0286H2.91667H43.1667H43.9167V34.2786V9.36198ZM20.2764 16.8727L20.2918 16.8836L20.3078 16.8936L27.755 21.5626L27.8249 21.6064L27.9026 21.634C27.9928 21.666 28.0417 21.7422 28.0417 21.8203C28.0417 21.846 28.0358 21.8685 28.0234 21.8914C28.0125 21.9117 27.9949 21.935 27.9691 21.9578L20.3645 26.7081L20.3247 26.7329L20.2883 26.7625C20.2243 26.8146 20.184 26.8203 20.1667 26.8203C20.0509 26.8203 19.9583 26.7277 19.9583 26.612V17.0286C19.9583 16.9134 20.0514 16.8203 20.1667 16.8203C20.171 16.8203 20.1786 16.8208 20.1938 16.8264C20.2109 16.8327 20.238 16.8459 20.2764 16.8727ZM44.125 35.4453H1.95833C1.84259 35.4453 1.75 35.3527 1.75 35.237V8.40365C1.75 8.28837 1.84308 8.19531 1.95833 8.19531H44.125C44.2403 8.19531 44.3333 8.28837 44.3333 8.40365V35.237C44.3333 35.3527 44.2407 35.4453 44.125 35.4453ZM14.4167 38.862H31.6667C31.7824 38.862 31.875 38.9546 31.875 39.0703C31.875 39.1861 31.7824 39.2786 31.6667 39.2786H14.4167C14.3009 39.2786 14.2083 39.1861 14.2083 39.0703C14.2083 38.9546 14.3009 38.862 14.4167 38.862Z" stroke="#071524" stroke-width="1.5"/>
</svg>
