<svg width="25" height="25" viewBox="0 0 25 25" fill="none" xmlns="http://www.w3.org/2000/svg">
<path d="M21.7401 16.9218V19.6315C21.7411 19.883 21.6895 20.132 21.5886 20.3625C21.4876 20.593 21.3396 20.7999 21.154 20.97C20.9683 21.14 20.7492 21.2695 20.5105 21.3501C20.2719 21.4307 20.019 21.4606 19.7681 21.438C16.9846 21.136 14.3109 20.1862 11.9617 18.665C9.77615 17.2782 7.92316 15.428 6.53435 13.2456C5.00562 10.8892 4.05426 8.20638 3.75734 5.41447C3.73474 5.16469 3.76447 4.91295 3.84463 4.67528C3.9248 4.4376 4.05365 4.2192 4.22298 4.03397C4.39231 3.84875 4.59841 3.70076 4.82816 3.59942C5.0579 3.49809 5.30626 3.44564 5.55742 3.4454H8.27112C8.71011 3.44109 9.13569 3.59631 9.46854 3.88215C9.80139 4.16798 10.0188 4.56492 10.0802 4.99898C10.1948 5.86615 10.4072 6.7176 10.7134 7.53709C10.8351 7.86038 10.8615 8.21173 10.7893 8.54951C10.7172 8.88729 10.5496 9.19734 10.3064 9.44293L9.15759 10.59C10.4453 12.8514 12.3204 14.7237 14.585 16.0095L15.7338 14.8624C15.9797 14.6195 16.2902 14.4522 16.6285 14.3801C16.9668 14.3081 17.3186 14.3344 17.6424 14.4559C18.4631 14.7617 19.3158 14.9738 20.1842 15.0882C20.6236 15.1501 21.0249 15.3711 21.3118 15.7092C21.5987 16.0472 21.7511 16.4788 21.7401 16.9218Z" stroke="#071524" stroke-linecap="round" stroke-linejoin="round"/>
</svg>
