<svg width="46" height="47" viewBox="0 0 46 47" fill="none" xmlns="http://www.w3.org/2000/svg">
<path d="M23.08 1.44531C10.9056 1.44531 1 11.351 1 23.5253C1 35.6997 10.9056 45.6053 23.08 45.6053C35.2544 45.6053 45.16 35.6997 45.16 23.5253C45.16 11.351 35.2544 1.44531 23.08 1.44531ZM23.08 43.7653C11.9195 43.7653 2.84 34.6858 2.84 23.5253C2.84 12.3648 11.9195 3.28531 23.08 3.28531C34.2405 3.28531 43.32 12.3648 43.32 23.5253C43.32 34.6858 34.2405 43.7653 23.08 43.7653Z" fill="#071524"/>
<path d="M21.2398 12.4857H24.9198C27.4562 12.4857 29.5198 14.5493 29.5198 17.0857H31.3598C31.3598 13.5345 28.4701 10.6457 24.9198 10.6457H23.9998V7.88574H22.1598V10.6457H21.2398C17.6895 10.6457 14.7998 13.5345 14.7998 17.0857V18.0057C14.7998 21.5569 17.6895 24.4457 21.2398 24.4457H24.9198C27.4562 24.4457 29.5198 26.5093 29.5198 29.0457V29.9657C29.5198 32.5022 27.4562 34.5657 24.9198 34.5657H21.2398C18.7034 34.5657 16.6398 32.5022 16.6398 29.9657H14.7998C14.7998 33.5169 17.6895 36.4057 21.2398 36.4057H22.1598V39.1657H23.9998V36.4057H24.9198C28.4701 36.4057 31.3598 33.5169 31.3598 29.9657V29.0457C31.3598 25.4945 28.4701 22.6057 24.9198 22.6057H21.2398C18.7034 22.6057 16.6398 20.5422 16.6398 18.0057V17.0857C16.6398 14.5493 18.7034 12.4857 21.2398 12.4857Z" fill="#071524"/>
</svg>
