<svg width="24" height="24" viewBox="0 0 24 24" fill="none" xmlns="http://www.w3.org/2000/svg">
<path d="M21.9999 16.3332H20.6665V12.9999C20.6665 10.7014 19.7534 8.49702 18.1281 6.87171C16.5028 5.24641 14.2985 4.33332 11.9999 4.33332C9.7014 4.33332 7.49702 5.24641 5.87171 6.87171C4.24641 8.49702 3.33332 10.7014 3.33332 12.9999V16.3332H2V12.9999C2 10.3478 3.05356 7.80426 4.92891 5.92891C6.80426 4.05356 9.34778 3 11.9999 3C14.6521 3 17.1956 4.05356 19.0709 5.92891C20.9463 7.80426 21.9999 10.3478 21.9999 12.9999V16.3332Z" fill="#103935"/>
<path d="M6.1533 20.3331H5.33331C4.89557 20.3331 4.46212 20.2469 4.05771 20.0793C3.65329 19.9118 3.28583 19.6663 2.9763 19.3568C2.35119 18.7317 2 17.8838 2 16.9998V15.6665C2 14.7824 2.35119 13.9346 2.9763 13.3094C3.60142 12.6843 4.44926 12.3331 5.33331 12.3331H6.1533C6.46808 12.3384 6.76819 12.4671 6.98892 12.6916C7.20966 12.9161 7.33334 13.2183 7.33329 13.5331V19.1331C7.33334 19.4479 7.20966 19.7501 6.98892 19.9746C6.76819 20.1991 6.46808 20.3278 6.1533 20.3331ZM5.33331 13.6665C4.80288 13.6665 4.29418 13.8772 3.91911 14.2522C3.54404 14.6273 3.33332 15.136 3.33332 15.6665V16.9998C3.33332 17.5302 3.54404 18.0389 3.91911 18.414C4.29418 18.789 4.80288 18.9998 5.33331 18.9998H5.99997V13.6665H5.33331Z" fill="#103935"/>
<path d="M18.667 20.3332H17.867C17.5487 20.3332 17.2435 20.2068 17.0185 19.9817C16.7934 19.7567 16.667 19.4515 16.667 19.1332V13.5332C16.667 13.215 16.7934 12.9098 17.0185 12.6847C17.2435 12.4597 17.5487 12.3333 17.867 12.3333H18.667C19.551 12.3333 20.3989 12.6844 21.024 13.3096C21.6491 13.9347 22.0003 14.7825 22.0003 15.6666V16.9999C22.0003 17.8839 21.6491 18.7318 21.024 19.3569C20.3989 19.982 19.551 20.3332 18.667 20.3332ZM18.0003 18.9999H18.667C19.1974 18.9999 19.7061 18.7892 20.0812 18.4141C20.4563 18.039 20.667 17.5303 20.667 16.9999V15.6666C20.667 15.1361 20.4563 14.6274 20.0812 14.2524C19.7061 13.8773 19.1974 13.6666 18.667 13.6666H18.0003V18.9999Z" fill="#103935"/>
</svg>
