<svg width="24" height="25" viewBox="0 0 24 25" fill="none" xmlns="http://www.w3.org/2000/svg">
<path d="M15.9706 7.66618C15.9003 7.73591 15.8445 7.81886 15.8065 7.91025C15.7684 8.00165 15.7488 8.09968 15.7488 8.19868C15.7488 8.29769 15.7684 8.39572 15.8065 8.48712C15.8445 8.57851 15.9003 8.66146 15.9706 8.73118L19.4206 12.1812H1.76562C1.56671 12.1812 1.37595 12.2602 1.23529 12.4009C1.09464 12.5415 1.01562 12.7323 1.01562 12.9312C1.01562 13.1301 1.09464 13.3209 1.23529 13.4615C1.37595 13.6022 1.56671 13.6812 1.76562 13.6812H19.4056L15.9706 17.1087C15.8309 17.2492 15.7525 17.4393 15.7525 17.6374C15.7525 17.8356 15.8309 18.0257 15.9706 18.1662C16.1111 18.3059 16.3012 18.3843 16.4994 18.3843C16.6975 18.3843 16.8876 18.3059 17.0281 18.1662L21.7981 13.3962C21.8623 13.3346 21.9134 13.2606 21.9483 13.1788C21.9832 13.097 22.0012 13.0089 22.0012 12.9199C22.0012 12.831 21.9832 12.7429 21.9483 12.6611C21.9134 12.5792 21.8623 12.5053 21.7981 12.4437L17.0356 7.66618C16.9659 7.59589 16.883 7.54009 16.7916 7.50202C16.7002 7.46394 16.6021 7.44434 16.5031 7.44434C16.4041 7.44434 16.3061 7.46394 16.2147 7.50202C16.1233 7.54009 16.0403 7.59589 15.9706 7.66618Z" fill="#071524"/>
</svg>
